<mxfile host="app.diagrams.net" modified="2021-04-07T12:35:32.648Z" agent="5.0 (Windows NT 10.0; Win64; x64) AppleWebKit/537.36 (KHTML, like Gecko) Chrome/89.0.4389.114 Safari/537.36" etag="KpHq9l5c2i5pmsphgDsw" version="14.5.8" type="github" pages="5">
  <diagram id="xGYEN_YDBd0MPvYQTCn3" name="Log in">
    <mxGraphModel dx="2062" dy="785" grid="1" gridSize="10" guides="1" tooltips="1" connect="1" arrows="1" fold="1" page="1" pageScale="1" pageWidth="850" pageHeight="1100" math="0" shadow="0">
      <root>
        <mxCell id="0" />
        <mxCell id="1" parent="0" />
        <mxCell id="TJ5ipinpaWHkUtVqbD3Q-1" value="" style="verticalLabelPosition=bottom;shadow=0;dashed=0;align=center;html=1;verticalAlign=top;strokeWidth=1;shape=mxgraph.mockup.graphics.simpleIcon;strokeColor=#999999;" parent="1" vertex="1">
          <mxGeometry x="340" y="190" width="200" height="210" as="geometry" />
        </mxCell>
        <mxCell id="DMMAmkQdfKEmFoRHiOaA-1" value="" style="verticalLabelPosition=bottom;verticalAlign=top;html=1;shadow=0;dashed=0;strokeWidth=1;shape=mxgraph.android.phone2;strokeColor=#c0c0c0;" parent="1" vertex="1">
          <mxGeometry x="270" y="20" width="340" height="590" as="geometry" />
        </mxCell>
        <mxCell id="DMMAmkQdfKEmFoRHiOaA-2" value="Log In" style="strokeWidth=1;shadow=0;dashed=0;align=center;html=1;shape=mxgraph.mockup.buttons.button;strokeColor=#666666;fontColor=#ffffff;mainText=;buttonStyle=round;fontSize=17;fontStyle=1;fillColor=#008cff;whiteSpace=wrap;" parent="1" vertex="1">
          <mxGeometry x="365" y="420" width="150" height="50" as="geometry" />
        </mxCell>
        <mxCell id="DMMAmkQdfKEmFoRHiOaA-3" value="Welcome" style="text;html=1;align=center;verticalAlign=middle;resizable=0;points=[];autosize=1;strokeColor=none;fontSize=28;fontStyle=1" parent="1" vertex="1">
          <mxGeometry x="370" y="130" width="140" height="40" as="geometry" />
        </mxCell>
        <mxCell id="DMMAmkQdfKEmFoRHiOaA-4" value="site description" style="text;html=1;align=center;verticalAlign=middle;resizable=0;points=[];autosize=1;strokeColor=none;fontSize=28;" parent="1" vertex="1">
          <mxGeometry x="340" y="230" width="200" height="40" as="geometry" />
        </mxCell>
      </root>
    </mxGraphModel>
  </diagram>
  <diagram id="bmVRIKpR0ZhhhKk3RQmt" name="Favourite Management">
    <mxGraphModel dx="2062" dy="785" grid="1" gridSize="10" guides="1" tooltips="1" connect="1" arrows="1" fold="1" page="1" pageScale="1" pageWidth="850" pageHeight="1100" math="0" shadow="0">
      <root>
        <mxCell id="IKgI7aEOmFhG3yRgOAxm-0" />
        <mxCell id="IKgI7aEOmFhG3yRgOAxm-1" parent="IKgI7aEOmFhG3yRgOAxm-0" />
        <mxCell id="1_PBgK9wySVyO0oEIULW-0" value="" style="group" parent="IKgI7aEOmFhG3yRgOAxm-1" vertex="1" connectable="0">
          <mxGeometry x="240" y="30" width="370" height="700" as="geometry" />
        </mxCell>
        <mxCell id="h-pM8wiKhdDk-ymCtJ5F-0" value="" style="verticalLabelPosition=bottom;verticalAlign=top;html=1;shadow=0;dashed=0;strokeWidth=1;shape=mxgraph.android.phone2;strokeColor=#c0c0c0;fontSize=28;" parent="1_PBgK9wySVyO0oEIULW-0" vertex="1">
          <mxGeometry width="370" height="700" as="geometry" />
        </mxCell>
        <mxCell id="h-pM8wiKhdDk-ymCtJ5F-2" value="Which courses are you interested in" style="text;html=1;align=center;verticalAlign=middle;resizable=0;points=[];autosize=1;strokeColor=none;fontSize=20;" parent="1_PBgK9wySVyO0oEIULW-0" vertex="1">
          <mxGeometry x="20" y="100" width="330" height="30" as="geometry" />
        </mxCell>
        <mxCell id="h-pM8wiKhdDk-ymCtJ5F-3" value="" style="strokeWidth=1;shadow=0;dashed=0;align=center;html=1;shape=mxgraph.mockup.forms.rrect;rSize=0;strokeColor=#999999;fillColor=#ffffff;recursiveResize=0;fontSize=20;" parent="1_PBgK9wySVyO0oEIULW-0" vertex="1">
          <mxGeometry x="30" y="235" width="280" height="275" as="geometry" />
        </mxCell>
        <mxCell id="h-pM8wiKhdDk-ymCtJ5F-4" value="Option 1" style="strokeWidth=1;shadow=0;dashed=0;align=center;html=1;shape=mxgraph.mockup.forms.rrect;rSize=0;fillColor=#eeeeee;strokeColor=#999999;gradientColor=#cccccc;align=left;spacingLeft=4;fontSize=17;fontColor=#666666;labelPosition=right;" parent="h-pM8wiKhdDk-ymCtJ5F-3" vertex="1">
          <mxGeometry x="8" y="7.5" width="15" height="15" as="geometry" />
        </mxCell>
        <mxCell id="h-pM8wiKhdDk-ymCtJ5F-5" value="Option 2" style="strokeWidth=1;shadow=0;dashed=0;align=center;html=1;shape=mxgraph.mockup.forms.rrect;rSize=0;fillColor=#eeeeee;strokeColor=#999999;gradientColor=#cccccc;align=left;spacingLeft=4;fontSize=17;fontColor=#666666;labelPosition=right;" parent="h-pM8wiKhdDk-ymCtJ5F-3" vertex="1">
          <mxGeometry x="8" y="37.5" width="15" height="15" as="geometry" />
        </mxCell>
        <mxCell id="h-pM8wiKhdDk-ymCtJ5F-6" value="Option 3" style="strokeWidth=1;shadow=0;dashed=0;align=center;html=1;shape=mxgraph.mockup.forms.checkbox;rSize=0;resizable=0;fillColor=#aaaaaa;strokeColor=#444444;gradientColor=#666666;align=left;spacingLeft=4;fontSize=17;fontColor=#008cff;labelPosition=right;" parent="h-pM8wiKhdDk-ymCtJ5F-3" vertex="1">
          <mxGeometry x="8" y="67.5" width="15" height="15" as="geometry" />
        </mxCell>
        <mxCell id="h-pM8wiKhdDk-ymCtJ5F-7" value="Option 4" style="strokeWidth=1;shadow=0;dashed=0;align=center;html=1;shape=mxgraph.mockup.forms.rrect;rSize=0;fillColor=#eeeeee;strokeColor=#999999;gradientColor=#cccccc;align=left;spacingLeft=4;fontSize=17;fontColor=#666666;labelPosition=right;" parent="h-pM8wiKhdDk-ymCtJ5F-3" vertex="1">
          <mxGeometry x="8" y="97.5" width="15" height="15" as="geometry" />
        </mxCell>
        <mxCell id="h-pM8wiKhdDk-ymCtJ5F-8" value="" style="shape=rect;fillColor=#e0e0e0;strokeColor=none;fontSize=24;" parent="1_PBgK9wySVyO0oEIULW-0" vertex="1">
          <mxGeometry x="30" y="160" width="300" height="40" as="geometry" />
        </mxCell>
        <mxCell id="h-pM8wiKhdDk-ymCtJ5F-9" value="" style="html=1;strokeWidth=1;shadow=0;dashed=0;shape=mxgraph.ios7ui.marginRect;rx=3;ry=3;rectMargin=5;strokeColor=none;" parent="h-pM8wiKhdDk-ymCtJ5F-8" vertex="1">
          <mxGeometry width="300" height="40" as="geometry" />
        </mxCell>
        <mxCell id="h-pM8wiKhdDk-ymCtJ5F-10" value="Search" style="shape=mxgraph.ios7.icons.looking_glass;strokeColor=#e0e0e0;fillColor=none;fontColor=#e0e0e0;labelPosition=right;verticalLabelPosition=middle;align=left;verticalAlign=middle;fontSize=6;fontStyle=0;spacingTop=2;" parent="h-pM8wiKhdDk-ymCtJ5F-8" vertex="1">
          <mxGeometry x="0.5" y="0.5" width="6" height="6" relative="1" as="geometry">
            <mxPoint x="-17" y="-3" as="offset" />
          </mxGeometry>
        </mxCell>
        <mxCell id="iGmD4QN3t9cba1ILdnTS-0" value="Done/Next" style="strokeWidth=1;shadow=0;dashed=0;align=center;html=1;shape=mxgraph.mockup.buttons.button;strokeColor=#666666;fontColor=#ffffff;mainText=;buttonStyle=round;fontSize=17;fontStyle=1;fillColor=#008cff;whiteSpace=wrap;" parent="1_PBgK9wySVyO0oEIULW-0" vertex="1">
          <mxGeometry x="179" y="560" width="150" height="50" as="geometry" />
        </mxCell>
      </root>
    </mxGraphModel>
  </diagram>
  <diagram id="MjjNa2f0SKt17903j1sM" name="Home Page">
    <mxGraphModel dx="2062" dy="785" grid="1" gridSize="10" guides="1" tooltips="1" connect="1" arrows="1" fold="1" page="1" pageScale="1" pageWidth="850" pageHeight="1100" math="0" shadow="0">
      <root>
        <mxCell id="J984BzK3QruMOZnwUzdc-0" />
        <mxCell id="J984BzK3QruMOZnwUzdc-1" parent="J984BzK3QruMOZnwUzdc-0" />
        <mxCell id="FWLkKUj0DHl-37oGhchk-0" value="" style="group" parent="J984BzK3QruMOZnwUzdc-1" vertex="1" connectable="0">
          <mxGeometry x="235" y="40" width="380" height="740" as="geometry" />
        </mxCell>
        <mxCell id="J984BzK3QruMOZnwUzdc-2" value="" style="verticalLabelPosition=bottom;verticalAlign=top;html=1;shadow=0;dashed=0;strokeWidth=1;shape=mxgraph.android.phone2;strokeColor=#c0c0c0;fontSize=20;" parent="FWLkKUj0DHl-37oGhchk-0" vertex="1">
          <mxGeometry width="380" height="740" as="geometry" />
        </mxCell>
        <mxCell id="J984BzK3QruMOZnwUzdc-3" value="Stackoverflow favourite feed" style="whiteSpace=wrap;html=1;aspect=fixed;fontSize=20;" parent="FWLkKUj0DHl-37oGhchk-0" vertex="1">
          <mxGeometry x="45" y="330" width="290" height="290" as="geometry" />
        </mxCell>
        <mxCell id="J984BzK3QruMOZnwUzdc-4" value="Course choice" style="strokeWidth=1;shadow=0;dashed=0;align=center;html=1;shape=mxgraph.mockup.forms.comboBox;strokeColor=#999999;fillColor=#ddeeff;align=left;fillColor2=#aaddff;mainText=;fontColor=#666666;fontSize=17;spacingLeft=3;" parent="FWLkKUj0DHl-37oGhchk-0" vertex="1">
          <mxGeometry x="40" y="280" width="150" height="30" as="geometry" />
        </mxCell>
        <mxCell id="J984BzK3QruMOZnwUzdc-5" value="Wits Overflow" style="text;html=1;align=center;verticalAlign=middle;resizable=0;points=[];autosize=1;strokeColor=none;fontSize=35;" parent="FWLkKUj0DHl-37oGhchk-0" vertex="1">
          <mxGeometry x="75" y="160" width="230" height="50" as="geometry" />
        </mxCell>
        <mxCell id="4cxbDs5Yv2ow_U0DcpBr-0" value="Add courses" style="strokeWidth=1;shadow=0;dashed=0;align=center;html=1;shape=mxgraph.mockup.buttons.button;strokeColor=#666666;fontColor=#ffffff;mainText=;buttonStyle=round;fontSize=17;fontStyle=1;fillColor=#008cff;whiteSpace=wrap;" parent="FWLkKUj0DHl-37oGhchk-0" vertex="1">
          <mxGeometry x="215" y="90" width="140" height="30" as="geometry" />
        </mxCell>
        <mxCell id="4cxbDs5Yv2ow_U0DcpBr-1" value="Log Out" style="strokeWidth=1;shadow=0;dashed=0;align=center;html=1;shape=mxgraph.mockup.buttons.button;strokeColor=#666666;fontColor=#ffffff;mainText=;buttonStyle=round;fontSize=17;fontStyle=1;fillColor=#008cff;whiteSpace=wrap;" parent="FWLkKUj0DHl-37oGhchk-0" vertex="1">
          <mxGeometry x="25" y="90" width="106" height="30" as="geometry" />
        </mxCell>
        <mxCell id="9J6SxrDEwlrWU5JxHQgu-0" value="Search" style="strokeWidth=1;shadow=0;dashed=0;align=center;html=1;shape=mxgraph.mockup.forms.searchBox;strokeColor=#999999;mainText=;strokeColor2=#008cff;fontColor=#666666;fontSize=17;align=left;spacingLeft=3;" parent="FWLkKUj0DHl-37oGhchk-0" vertex="1">
          <mxGeometry x="200" y="280" width="145" height="30" as="geometry" />
        </mxCell>
        <mxCell id="0AejdfsHVGI9VEglGskV-0" value="Ask a question" style="strokeWidth=1;shadow=0;dashed=0;align=center;html=1;shape=mxgraph.mockup.buttons.button;strokeColor=#666666;fontColor=#ffffff;mainText=;buttonStyle=round;fontSize=17;fontStyle=1;fillColor=#008cff;whiteSpace=wrap;" vertex="1" parent="FWLkKUj0DHl-37oGhchk-0">
          <mxGeometry x="120" y="230" width="140" height="30" as="geometry" />
        </mxCell>
      </root>
    </mxGraphModel>
  </diagram>
  <diagram id="oMdsH15nOSjPR7AjjJ6u" name="News Feed">
    <mxGraphModel dx="2062" dy="785" grid="1" gridSize="10" guides="1" tooltips="1" connect="1" arrows="1" fold="1" page="1" pageScale="1" pageWidth="850" pageHeight="1100" math="0" shadow="0">
      <root>
        <mxCell id="5TTQ62l5hQypaiG2aimG-0" />
        <mxCell id="5TTQ62l5hQypaiG2aimG-1" parent="5TTQ62l5hQypaiG2aimG-0" />
        <mxCell id="5TTQ62l5hQypaiG2aimG-2" value="Wits overflow favorite feed" style="text;html=1;align=center;verticalAlign=middle;resizable=0;points=[];autosize=1;strokeColor=none;fontSize=35;" parent="5TTQ62l5hQypaiG2aimG-1" vertex="1">
          <mxGeometry x="185" y="35" width="430" height="50" as="geometry" />
        </mxCell>
        <mxCell id="QRfyQm6hzYjoRUZLdzFa-7" value="" style="group" parent="5TTQ62l5hQypaiG2aimG-1" vertex="1" connectable="0">
          <mxGeometry x="100" y="150" width="690" height="180" as="geometry" />
        </mxCell>
        <mxCell id="5TTQ62l5hQypaiG2aimG-3" value="" style="rounded=0;whiteSpace=wrap;html=1;fontSize=35;" parent="QRfyQm6hzYjoRUZLdzFa-7" vertex="1">
          <mxGeometry width="690" height="180" as="geometry" />
        </mxCell>
        <mxCell id="QRfyQm6hzYjoRUZLdzFa-0" value="Question heading" style="rounded=0;whiteSpace=wrap;html=1;fontSize=35;" parent="QRfyQm6hzYjoRUZLdzFa-7" vertex="1">
          <mxGeometry x="100" y="50" width="380" height="40" as="geometry" />
        </mxCell>
        <mxCell id="QRfyQm6hzYjoRUZLdzFa-1" value="Question body" style="rounded=0;whiteSpace=wrap;html=1;fontSize=35;" parent="QRfyQm6hzYjoRUZLdzFa-7" vertex="1">
          <mxGeometry x="100" y="100" width="380" height="60" as="geometry" />
        </mxCell>
        <mxCell id="QRfyQm6hzYjoRUZLdzFa-4" value="Score" style="rounded=0;whiteSpace=wrap;html=1;fontSize=35;" parent="QRfyQm6hzYjoRUZLdzFa-7" vertex="1">
          <mxGeometry x="10" y="70" width="60" height="40" as="geometry" />
        </mxCell>
        <mxCell id="QRfyQm6hzYjoRUZLdzFa-5" value="Date" style="rounded=0;whiteSpace=wrap;html=1;fontSize=35;" parent="QRfyQm6hzYjoRUZLdzFa-7" vertex="1">
          <mxGeometry x="500" y="140" width="120" height="40" as="geometry" />
        </mxCell>
        <mxCell id="QRfyQm6hzYjoRUZLdzFa-6" value="Course module and class" style="rounded=0;whiteSpace=wrap;html=1;fontSize=21;" parent="QRfyQm6hzYjoRUZLdzFa-7" vertex="1">
          <mxGeometry x="100" y="10" width="510" height="20" as="geometry" />
        </mxCell>
        <mxCell id="QRfyQm6hzYjoRUZLdzFa-8" value="" style="group" parent="5TTQ62l5hQypaiG2aimG-1" vertex="1" connectable="0">
          <mxGeometry x="100" y="340" width="690" height="180" as="geometry" />
        </mxCell>
        <mxCell id="QRfyQm6hzYjoRUZLdzFa-9" value="" style="rounded=0;whiteSpace=wrap;html=1;fontSize=35;" parent="QRfyQm6hzYjoRUZLdzFa-8" vertex="1">
          <mxGeometry width="690" height="180" as="geometry" />
        </mxCell>
        <mxCell id="QRfyQm6hzYjoRUZLdzFa-10" value="Question heading" style="rounded=0;whiteSpace=wrap;html=1;fontSize=35;" parent="QRfyQm6hzYjoRUZLdzFa-8" vertex="1">
          <mxGeometry x="100" y="50" width="380" height="40" as="geometry" />
        </mxCell>
        <mxCell id="QRfyQm6hzYjoRUZLdzFa-11" value="Question body" style="rounded=0;whiteSpace=wrap;html=1;fontSize=35;" parent="QRfyQm6hzYjoRUZLdzFa-8" vertex="1">
          <mxGeometry x="100" y="100" width="380" height="60" as="geometry" />
        </mxCell>
        <mxCell id="QRfyQm6hzYjoRUZLdzFa-12" value="Score" style="rounded=0;whiteSpace=wrap;html=1;fontSize=35;" parent="QRfyQm6hzYjoRUZLdzFa-8" vertex="1">
          <mxGeometry x="10" y="70" width="60" height="40" as="geometry" />
        </mxCell>
        <mxCell id="QRfyQm6hzYjoRUZLdzFa-13" value="Date" style="rounded=0;whiteSpace=wrap;html=1;fontSize=35;" parent="QRfyQm6hzYjoRUZLdzFa-8" vertex="1">
          <mxGeometry x="500" y="140" width="120" height="40" as="geometry" />
        </mxCell>
        <mxCell id="QRfyQm6hzYjoRUZLdzFa-14" value="Course module and class" style="rounded=0;whiteSpace=wrap;html=1;fontSize=21;" parent="QRfyQm6hzYjoRUZLdzFa-8" vertex="1">
          <mxGeometry x="100" y="10" width="510" height="20" as="geometry" />
        </mxCell>
        <mxCell id="QRfyQm6hzYjoRUZLdzFa-15" value="" style="group" parent="5TTQ62l5hQypaiG2aimG-1" vertex="1" connectable="0">
          <mxGeometry x="100" y="530" width="690" height="180" as="geometry" />
        </mxCell>
        <mxCell id="QRfyQm6hzYjoRUZLdzFa-16" value="" style="rounded=0;whiteSpace=wrap;html=1;fontSize=35;" parent="QRfyQm6hzYjoRUZLdzFa-15" vertex="1">
          <mxGeometry width="690" height="180" as="geometry" />
        </mxCell>
        <mxCell id="QRfyQm6hzYjoRUZLdzFa-17" value="Question heading" style="rounded=0;whiteSpace=wrap;html=1;fontSize=35;" parent="QRfyQm6hzYjoRUZLdzFa-15" vertex="1">
          <mxGeometry x="100" y="50" width="380" height="40" as="geometry" />
        </mxCell>
        <mxCell id="QRfyQm6hzYjoRUZLdzFa-18" value="Question body" style="rounded=0;whiteSpace=wrap;html=1;fontSize=35;" parent="QRfyQm6hzYjoRUZLdzFa-15" vertex="1">
          <mxGeometry x="100" y="100" width="380" height="60" as="geometry" />
        </mxCell>
        <mxCell id="QRfyQm6hzYjoRUZLdzFa-19" value="Score" style="rounded=0;whiteSpace=wrap;html=1;fontSize=35;" parent="QRfyQm6hzYjoRUZLdzFa-15" vertex="1">
          <mxGeometry x="10" y="70" width="60" height="40" as="geometry" />
        </mxCell>
        <mxCell id="QRfyQm6hzYjoRUZLdzFa-20" value="Date" style="rounded=0;whiteSpace=wrap;html=1;fontSize=35;" parent="QRfyQm6hzYjoRUZLdzFa-15" vertex="1">
          <mxGeometry x="500" y="140" width="120" height="40" as="geometry" />
        </mxCell>
        <mxCell id="QRfyQm6hzYjoRUZLdzFa-21" value="Course module and class" style="rounded=0;whiteSpace=wrap;html=1;fontSize=21;" parent="QRfyQm6hzYjoRUZLdzFa-15" vertex="1">
          <mxGeometry x="100" y="10" width="510" height="20" as="geometry" />
        </mxCell>
      </root>
    </mxGraphModel>
  </diagram>
  <diagram id="hD81AxYCB1gOTffl0J_c" name="Question Page">
    <mxGraphModel dx="2062" dy="785" grid="1" gridSize="10" guides="1" tooltips="1" connect="1" arrows="1" fold="1" page="1" pageScale="1" pageWidth="850" pageHeight="1100" math="0" shadow="0">
      <root>
        <mxCell id="TyaoYPacvzeRjemmxLD4-0" />
        <mxCell id="TyaoYPacvzeRjemmxLD4-1" parent="TyaoYPacvzeRjemmxLD4-0" />
        <mxCell id="TyaoYPacvzeRjemmxLD4-2" value="Specific Question Page" style="text;html=1;align=center;verticalAlign=middle;resizable=0;points=[];autosize=1;strokeColor=none;fontSize=21;" parent="TyaoYPacvzeRjemmxLD4-1" vertex="1">
          <mxGeometry x="220" y="20" width="230" height="30" as="geometry" />
        </mxCell>
        <mxCell id="kdflw1HYr7syCRra5qtN-1" value="" style="rounded=0;whiteSpace=wrap;html=1;fontSize=35;" parent="TyaoYPacvzeRjemmxLD4-1" vertex="1">
          <mxGeometry x="100" y="160" width="700" height="340" as="geometry" />
        </mxCell>
        <mxCell id="kdflw1HYr7syCRra5qtN-2" value="Question heading" style="rounded=0;whiteSpace=wrap;html=1;fontSize=35;" parent="TyaoYPacvzeRjemmxLD4-1" vertex="1">
          <mxGeometry x="235" y="70" width="380" height="40" as="geometry" />
        </mxCell>
        <mxCell id="kdflw1HYr7syCRra5qtN-3" value="Question body" style="rounded=0;whiteSpace=wrap;html=1;fontSize=35;" parent="TyaoYPacvzeRjemmxLD4-1" vertex="1">
          <mxGeometry x="200" y="170" width="460" height="250" as="geometry" />
        </mxCell>
        <mxCell id="kdflw1HYr7syCRra5qtN-5" value="Date" style="rounded=0;whiteSpace=wrap;html=1;fontSize=35;" parent="TyaoYPacvzeRjemmxLD4-1" vertex="1">
          <mxGeometry x="370" y="110" width="120" height="40" as="geometry" />
        </mxCell>
        <mxCell id="kdflw1HYr7syCRra5qtN-6" value="Course module and class" style="rounded=0;whiteSpace=wrap;html=1;fontSize=21;" parent="TyaoYPacvzeRjemmxLD4-1" vertex="1">
          <mxGeometry x="195" y="150" width="510" height="20" as="geometry" />
        </mxCell>
        <mxCell id="kdflw1HYr7syCRra5qtN-7" value="" style="shape=singleArrow;direction=north;whiteSpace=wrap;html=1;fontSize=21;arrowWidth=0.32;arrowSize=0.38;" parent="TyaoYPacvzeRjemmxLD4-1" vertex="1">
          <mxGeometry x="120" y="160" width="50" height="50" as="geometry" />
        </mxCell>
        <mxCell id="kdflw1HYr7syCRra5qtN-8" value="" style="shape=singleArrow;direction=north;whiteSpace=wrap;html=1;fontSize=21;arrowWidth=0.32;arrowSize=0.38;rotation=-180;" parent="TyaoYPacvzeRjemmxLD4-1" vertex="1">
          <mxGeometry x="120" y="260" width="50" height="50" as="geometry" />
        </mxCell>
        <mxCell id="kdflw1HYr7syCRra5qtN-9" value="2" style="text;html=1;strokeColor=none;fillColor=none;align=center;verticalAlign=middle;whiteSpace=wrap;rounded=0;fontSize=21;" parent="TyaoYPacvzeRjemmxLD4-1" vertex="1">
          <mxGeometry x="125" y="220" width="40" height="20" as="geometry" />
        </mxCell>
        <mxCell id="kdflw1HYr7syCRra5qtN-10" value="Author" style="rounded=0;whiteSpace=wrap;html=1;fontSize=21;" parent="TyaoYPacvzeRjemmxLD4-1" vertex="1">
          <mxGeometry x="670" y="430" width="120" height="60" as="geometry" />
        </mxCell>
        <mxCell id="kdflw1HYr7syCRra5qtN-21" value="Student" style="rounded=0;whiteSpace=wrap;html=1;fontSize=15;" parent="TyaoYPacvzeRjemmxLD4-1" vertex="1">
          <mxGeometry x="700" y="470" width="60" height="10" as="geometry" />
        </mxCell>
        <mxCell id="kdflw1HYr7syCRra5qtN-23" value="" style="shape=image;html=1;verticalAlign=top;verticalLabelPosition=bottom;labelBackgroundColor=#ffffff;imageAspect=0;aspect=fixed;image=https://cdn1.iconfinder.com/data/icons/feather-2/24/flag-128.png;fontSize=15;" parent="TyaoYPacvzeRjemmxLD4-1" vertex="1">
          <mxGeometry x="730" y="170" width="50" height="50" as="geometry" />
        </mxCell>
        <mxCell id="kdflw1HYr7syCRra5qtN-37" value="Answer this question" style="strokeWidth=1;shadow=0;dashed=0;align=center;html=1;shape=mxgraph.mockup.buttons.button;strokeColor=#666666;fontColor=#ffffff;mainText=;buttonStyle=round;fontSize=17;fontStyle=1;fillColor=#008cff;whiteSpace=wrap;" parent="TyaoYPacvzeRjemmxLD4-1" vertex="1">
          <mxGeometry x="260" y="430" width="305" height="50" as="geometry" />
        </mxCell>
        <mxCell id="cca03NamtfLz2wxWhg1B-0" value="" style="group" parent="TyaoYPacvzeRjemmxLD4-1" vertex="1" connectable="0">
          <mxGeometry x="140" y="850" width="660" height="180" as="geometry" />
        </mxCell>
        <mxCell id="kdflw1HYr7syCRra5qtN-25" value="" style="rounded=0;whiteSpace=wrap;html=1;fontSize=21;" parent="cca03NamtfLz2wxWhg1B-0" vertex="1">
          <mxGeometry width="660" height="180" as="geometry" />
        </mxCell>
        <mxCell id="kdflw1HYr7syCRra5qtN-26" value="Answer body" style="rounded=0;whiteSpace=wrap;html=1;fontSize=21;" parent="cca03NamtfLz2wxWhg1B-0" vertex="1">
          <mxGeometry x="95" y="30" width="385" height="130" as="geometry" />
        </mxCell>
        <mxCell id="kdflw1HYr7syCRra5qtN-27" value="Author" style="rounded=0;whiteSpace=wrap;html=1;fontSize=21;" parent="cca03NamtfLz2wxWhg1B-0" vertex="1">
          <mxGeometry x="530" y="110" width="120" height="60" as="geometry" />
        </mxCell>
        <mxCell id="kdflw1HYr7syCRra5qtN-29" value="" style="shape=singleArrow;direction=north;whiteSpace=wrap;html=1;fontSize=21;arrowWidth=0.32;arrowSize=0.38;" parent="cca03NamtfLz2wxWhg1B-0" vertex="1">
          <mxGeometry x="20" y="10" width="50" height="30" as="geometry" />
        </mxCell>
        <mxCell id="kdflw1HYr7syCRra5qtN-30" value="" style="shape=singleArrow;direction=north;whiteSpace=wrap;html=1;fontSize=21;arrowWidth=0.32;arrowSize=0.4666666666666667;rotation=-180;" parent="cca03NamtfLz2wxWhg1B-0" vertex="1">
          <mxGeometry x="20" y="70" width="50" height="30" as="geometry" />
        </mxCell>
        <mxCell id="kdflw1HYr7syCRra5qtN-31" value="5" style="text;html=1;strokeColor=none;fillColor=none;align=center;verticalAlign=middle;whiteSpace=wrap;rounded=0;fontSize=21;" parent="cca03NamtfLz2wxWhg1B-0" vertex="1">
          <mxGeometry x="25" y="50" width="40" height="20" as="geometry" />
        </mxCell>
        <mxCell id="kdflw1HYr7syCRra5qtN-28" value="" style="edgeStyle=orthogonalEdgeStyle;rounded=0;orthogonalLoop=1;jettySize=auto;html=1;fontSize=21;" parent="cca03NamtfLz2wxWhg1B-0" source="kdflw1HYr7syCRra5qtN-29" target="kdflw1HYr7syCRra5qtN-31" edge="1">
          <mxGeometry relative="1" as="geometry" />
        </mxCell>
        <mxCell id="kdflw1HYr7syCRra5qtN-32" value="" style="shape=image;html=1;verticalAlign=top;verticalLabelPosition=bottom;labelBackgroundColor=#ffffff;imageAspect=0;aspect=fixed;image=https://cdn1.iconfinder.com/data/icons/material-core/18/check-box-outline-128.png;fontSize=21;" parent="cca03NamtfLz2wxWhg1B-0" vertex="1">
          <mxGeometry x="20" y="110" width="50" height="50" as="geometry" />
        </mxCell>
        <mxCell id="kdflw1HYr7syCRra5qtN-34" value="Lecturer" style="rounded=0;whiteSpace=wrap;html=1;fontSize=15;" parent="cca03NamtfLz2wxWhg1B-0" vertex="1">
          <mxGeometry x="560" y="150" width="60" height="10" as="geometry" />
        </mxCell>
        <mxCell id="kdflw1HYr7syCRra5qtN-35" value="" style="shape=image;html=1;verticalAlign=top;verticalLabelPosition=bottom;labelBackgroundColor=#ffffff;imageAspect=0;aspect=fixed;image=https://cdn1.iconfinder.com/data/icons/feather-2/24/flag-128.png;fontSize=15;" parent="cca03NamtfLz2wxWhg1B-0" vertex="1">
          <mxGeometry x="600" y="10" width="50" height="50" as="geometry" />
        </mxCell>
        <mxCell id="cca03NamtfLz2wxWhg1B-1" value="" style="group" parent="TyaoYPacvzeRjemmxLD4-1" vertex="1" connectable="0">
          <mxGeometry x="140" y="510" width="660" height="180" as="geometry" />
        </mxCell>
        <mxCell id="kdflw1HYr7syCRra5qtN-11" value="" style="rounded=0;whiteSpace=wrap;html=1;fontSize=21;" parent="cca03NamtfLz2wxWhg1B-1" vertex="1">
          <mxGeometry width="660" height="180" as="geometry" />
        </mxCell>
        <mxCell id="kdflw1HYr7syCRra5qtN-12" value="Answer body" style="rounded=0;whiteSpace=wrap;html=1;fontSize=21;" parent="cca03NamtfLz2wxWhg1B-1" vertex="1">
          <mxGeometry x="95" y="30" width="385" height="130" as="geometry" />
        </mxCell>
        <mxCell id="kdflw1HYr7syCRra5qtN-13" value="Author" style="rounded=0;whiteSpace=wrap;html=1;fontSize=21;" parent="cca03NamtfLz2wxWhg1B-1" vertex="1">
          <mxGeometry x="530" y="110" width="120" height="60" as="geometry" />
        </mxCell>
        <mxCell id="kdflw1HYr7syCRra5qtN-14" value="" style="shape=singleArrow;direction=north;whiteSpace=wrap;html=1;fontSize=21;arrowWidth=0.32;arrowSize=0.38;" parent="cca03NamtfLz2wxWhg1B-1" vertex="1">
          <mxGeometry x="20" y="10" width="50" height="30" as="geometry" />
        </mxCell>
        <mxCell id="kdflw1HYr7syCRra5qtN-15" value="" style="shape=singleArrow;direction=north;whiteSpace=wrap;html=1;fontSize=21;arrowWidth=0.32;arrowSize=0.4666666666666667;rotation=-180;" parent="cca03NamtfLz2wxWhg1B-1" vertex="1">
          <mxGeometry x="20" y="70" width="50" height="30" as="geometry" />
        </mxCell>
        <mxCell id="kdflw1HYr7syCRra5qtN-16" value="5" style="text;html=1;strokeColor=none;fillColor=none;align=center;verticalAlign=middle;whiteSpace=wrap;rounded=0;fontSize=21;" parent="cca03NamtfLz2wxWhg1B-1" vertex="1">
          <mxGeometry x="25" y="50" width="40" height="20" as="geometry" />
        </mxCell>
        <mxCell id="kdflw1HYr7syCRra5qtN-17" value="" style="edgeStyle=orthogonalEdgeStyle;rounded=0;orthogonalLoop=1;jettySize=auto;html=1;fontSize=21;" parent="cca03NamtfLz2wxWhg1B-1" source="kdflw1HYr7syCRra5qtN-14" target="kdflw1HYr7syCRra5qtN-16" edge="1">
          <mxGeometry relative="1" as="geometry" />
        </mxCell>
        <mxCell id="kdflw1HYr7syCRra5qtN-18" value="" style="shape=image;html=1;verticalAlign=top;verticalLabelPosition=bottom;labelBackgroundColor=#ffffff;imageAspect=0;aspect=fixed;image=https://cdn1.iconfinder.com/data/icons/material-core/18/check-box-outline-128.png;fontSize=21;" parent="cca03NamtfLz2wxWhg1B-1" vertex="1">
          <mxGeometry x="20" y="110" width="50" height="50" as="geometry" />
        </mxCell>
        <mxCell id="kdflw1HYr7syCRra5qtN-20" value="" style="shape=image;html=1;verticalAlign=top;verticalLabelPosition=bottom;labelBackgroundColor=#ffffff;imageAspect=0;aspect=fixed;image=https://cdn1.iconfinder.com/data/icons/silk2/tick.png;fontSize=21;" parent="cca03NamtfLz2wxWhg1B-1" vertex="1">
          <mxGeometry y="160" width="16" height="16" as="geometry" />
        </mxCell>
        <mxCell id="kdflw1HYr7syCRra5qtN-22" value="Lecturer" style="rounded=0;whiteSpace=wrap;html=1;fontSize=15;" parent="cca03NamtfLz2wxWhg1B-1" vertex="1">
          <mxGeometry x="560" y="150" width="60" height="10" as="geometry" />
        </mxCell>
        <mxCell id="kdflw1HYr7syCRra5qtN-24" value="" style="shape=image;html=1;verticalAlign=top;verticalLabelPosition=bottom;labelBackgroundColor=#ffffff;imageAspect=0;aspect=fixed;image=https://cdn1.iconfinder.com/data/icons/feather-2/24/flag-128.png;fontSize=15;" parent="cca03NamtfLz2wxWhg1B-1" vertex="1">
          <mxGeometry x="600" y="10" width="50" height="50" as="geometry" />
        </mxCell>
        <mxCell id="cca03NamtfLz2wxWhg1B-2" value="" style="rounded=0;whiteSpace=wrap;html=1;fontSize=15;" parent="TyaoYPacvzeRjemmxLD4-1" vertex="1">
          <mxGeometry x="220" y="690" width="570" height="110" as="geometry" />
        </mxCell>
        <mxCell id="cca03NamtfLz2wxWhg1B-3" value="Comment body" style="rounded=0;whiteSpace=wrap;html=1;fontSize=22;" parent="TyaoYPacvzeRjemmxLD4-1" vertex="1">
          <mxGeometry x="300" y="710" width="320" height="70" as="geometry" />
        </mxCell>
        <mxCell id="cca03NamtfLz2wxWhg1B-4" value="Author" style="rounded=0;whiteSpace=wrap;html=1;fontSize=22;" parent="TyaoYPacvzeRjemmxLD4-1" vertex="1">
          <mxGeometry x="680" y="740" width="100" height="40" as="geometry" />
        </mxCell>
        <mxCell id="cca03NamtfLz2wxWhg1B-5" value="" style="shape=image;html=1;verticalAlign=top;verticalLabelPosition=bottom;labelBackgroundColor=#ffffff;imageAspect=0;aspect=fixed;image=https://cdn1.iconfinder.com/data/icons/feather-2/24/flag-128.png;fontSize=22;" parent="TyaoYPacvzeRjemmxLD4-1" vertex="1">
          <mxGeometry x="740" y="700" width="30" height="30" as="geometry" />
        </mxCell>
        <mxCell id="4rp0i3dl7wAa2FVlLsdp-0" value="Back" style="strokeWidth=1;shadow=0;dashed=0;align=center;html=1;shape=mxgraph.mockup.buttons.button;strokeColor=#666666;fontColor=#ffffff;mainText=;buttonStyle=round;fontSize=17;fontStyle=1;fillColor=#008cff;whiteSpace=wrap;" parent="TyaoYPacvzeRjemmxLD4-1" vertex="1">
          <mxGeometry x="40" y="50" width="150" height="50" as="geometry" />
        </mxCell>
      </root>
    </mxGraphModel>
  </diagram>
</mxfile>
